<svg xmlns="http://www.w3.org/2000/svg" xmlns:xlink="http://www.w3.org/1999/xlink" xmlns:serif="http://www.serif.com/" width="100%" height="100%" viewBox="0 0 100 100" version="1.1" xml:space="preserve" style="fill-rule:evenodd;clip-rule:evenodd;stroke-linejoin:round;stroke-miterlimit:2;">
    <g transform="matrix(0.05,0,0,0.05,1.11022e-17,-7.10543e-15)">
        <g id="Chroma">
            <g id="circle_dark_turquoise">
                <circle cx="1000" cy="1000" r="1000" style="fill:url(#_Linear1);"/>
                <path d="M679.25,1911.93C600.758,1884.29 526.893,1846.79 459.143,1800.93L1816.86,483.447C1859.59,550.842 1894.21,623.872 1919.35,701.167L679.25,1911.93Z" style="fill:#9a19af;fill-opacity:0.5;"/>
                <path d="M327.65,1678.44C152.914,1505.24 44.649,1265.16 44.649,1000C44.649,472.728 472.728,44.649 1000,44.649C1278.35,44.649 1529.05,163.945 1703.74,354.163L327.65,1678.44Z" style="fill:#9a19af;fill-opacity:0.5;"/>
                <path d="M129.253,1218.19C0,371.332 801.517,-84.052 1408.71,199.31C698.786,-23.444 69.667,512.161 129.253,1218.19Z" style="fill:#dc7dec;"/>
            </g>
        </g>
    </g>
    <defs fill="#000000">
        <linearGradient id="_Linear1" x1="0" y1="0" x2="1" y2="0" gradientUnits="userSpaceOnUse" gradientTransform="matrix(-28.3969,-2000,2000,-28.3969,1028.4,2000)" fill="#000000"><stop offset="0" style="stop-color:#ba1fd5;stop-opacity:1" fill="#000000"/><stop offset="0.58" style="stop-color:#c831e1;stop-opacity:1" fill="#000000"/><stop offset="0.8" style="stop-color:#cf4be5;stop-opacity:1" fill="#000000"/><stop offset="1" style="stop-color:#d665e9;stop-opacity:1" fill="#000000"/></linearGradient>
    </defs>
</svg>